<svg width="39" height="39" viewBox="0 0 39 39" fill="none" xmlns="http://www.w3.org/2000/svg">
<path d="M22 12C24.7614 12 27 14.2386 27 17V34C27 36.7614 24.7614 39 22 39H5C2.23858 39 0 36.7614 0 34V17C1.28855e-07 14.2386 2.23858 12 5 12H22ZM18.8594 28.9199C18.2087 28.596 17.4295 28.8579 16.8828 29.3369C16.6706 29.5228 16.4368 29.6879 16.1855 29.8301C15.5465 30.1916 14.8147 30.3884 14.0664 30.3994C13.3181 30.4104 12.5798 30.2352 11.9287 29.8926C11.6702 29.7565 11.4292 29.5959 11.209 29.4141C10.6508 28.953 9.86656 28.7174 9.22852 29.0596C8.53004 29.4343 8.28745 30.3329 8.84473 30.8965C9.33649 31.3936 9.91093 31.8196 10.5488 32.1553C11.6338 32.7262 12.8634 33.0173 14.1104 32.999C15.3574 32.9807 16.5765 32.6533 17.6416 32.0508C18.267 31.697 18.8266 31.2556 19.3008 30.7451C19.84 30.1641 19.569 29.2735 18.8594 28.9199ZM8 20C6.89543 20 6 20.8954 6 22C6 23.1046 6.89543 24 8 24C9.10457 24 10 23.1046 10 22C10 20.8954 9.10457 20 8 20ZM20 20C18.8954 20 18 20.8954 18 22C18 23.1046 18.8954 24 20 24C21.1046 24 22 23.1046 22 22C22 20.8954 21.1046 20 20 20Z" fill="black"/>
<rect x="30" width="4" height="14" fill="black"/>
<rect x="25" y="5" width="14" height="4" fill="black"/>
</svg>
